<?xml version="1.0" encoding="utf-8"?>
<!-- Generator: Adobe Illustrator 24.0.2, SVG Export Plug-In . SVG Version: 6.00 Build 0)  -->
<svg version="1.1" id="Capa_1" xmlns="http://www.w3.org/2000/svg" xmlns:xlink="http://www.w3.org/1999/xlink" x="0px" y="0px"
	 width="154px" height="60px" viewBox="0 0 154 60" style="enable-background:new 0 0 154 60;" xml:space="preserve">
<style type="text/css">
	.st0{fill:#1F489A;}
	.st1{fill:#AADB1E;}
	.st2{fill:#54616C;}
	.st3{fill:#631B80;}
	.st4{fill:#00C2D1;}
	.st5{fill:#3C3C3B;}
	.st6{fill:#E83F40;}
</style>
<g>
	<path class="st1" d="M68.9,6.1c3.4,0,5.8,2.6,5.8,5.9c0,3.3-2.4,5.8-5.8,5.8c-3.3,0-5.8-2.5-5.8-5.8C63.2,8.7,65.6,6.1,68.9,6.1z"
		/>
	<path class="st2" d="M2,9h17c8.9,0,15.3,5.3,15.3,13c0,5.3-2.3,8.9-5.8,10.7c4.3,2.1,7.2,5.9,7.2,11.7c0,8.1-6.8,13.5-16.2,13.5H2
		V9z M18.9,18.9h-6.7V28h6.7c2.7,0,4.8-1.4,4.8-4.5C23.8,20.3,21.7,18.9,18.9,18.9z M19.4,37.8h-7.2v10.3h7.2c3.2,0,5.7-1.6,5.7-5.1
		C25.1,39.5,22.7,37.8,19.4,37.8z"/>
	<path class="st2" d="M48.4,26c1.7-2.7,4.5-4.6,8.5-4.6c0.8,0,2,0.1,2.8,0.2v10.4c-1.4-0.6-3.1-1.1-5.3-1.1c-3.5,0-5.8,2.4-6,6.2
		v14.4c0,3.5-2.9,6.4-6.4,6.4h-3.4V22.1h9.8V26z"/>
	<path class="st2" d="M67.4,58H64V22.1h9.8v29.5C73.8,55.1,71,58,67.4,58z"/>
	<path class="st2" d="M89.7,25.7l7.1,20.1l7.1-20.1c0.8-2.2,2.8-3.6,5.1-3.6h6.6l-12.1,31.8c-0.9,2.5-3.3,4.1-6,4.1h-5.9L78.2,22.1
		h6.5C86.9,22.1,89,23.6,89.7,25.7z"/>
	<path class="st2" d="M136.5,43.4c-5,0-8.6-2.7-9.5-6.8h24.3c0.3-1.2,0.6-3.2,0.6-4.7c0-9.3-6.4-17.1-16.8-17.1
		c-10.4,0-17.9,8.1-17.9,18.7c0,11.2,7.9,18.7,18.5,18.7c5.2,0,9.8-1.2,13-2.8l-2.1-3.5c-1.3-2.1-3.7-3.3-6.1-2.9
		C139.1,43.3,137.8,43.4,136.5,43.4z M135,23c4.2,0,7.3,2.5,7.4,6.2h-15.5C127.4,25.8,130.7,23,135,23z"/>
	<path class="st1" d="M119.4,13.4l2.5,2.8c0,0,6-7.9,20.1-5.2c0.9,0.2,1.7-0.3,2.1-1.1l3.4-7C147.6,3,129.7-2.7,119.4,13.4z"/>
</g>
</svg>
